<svg width="170" height="47" fill="none" xmlns="http://www.w3.org/2000/svg"><path d="M42.56 46.183H7.245C3.261 46.183 0 43.02 0 39.153V7.03C0 3.163 3.26 0 7.246 0H42.56c3.986 0 7.247 3.163 7.247 7.03v32.124c0 3.866-3.261 7.03-7.247 7.03z" fill="url(#paint0_linear_2_51)"/><path d="M68.976 33.533H82.76v5.216H62.483V7.244h6.493v26.289zM96.84 39.174c-3.432 0-6.23-1.05-8.385-3.16-2.156-2.11-3.233-4.908-3.233-8.413v-.606c0-2.355.453-4.456 1.358-6.303.906-1.856 2.192-3.278 3.858-4.283 1.666-1.005 3.568-1.503 5.696-1.503 3.205 0 5.723 1.014 7.561 3.024 1.838 2.02 2.762 4.881 2.762 8.585v2.553H91.561c.199 1.53.815 2.753 1.829 3.677 1.014.924 2.3 1.386 3.858 1.386 2.408 0 4.292-.87 5.65-2.618l3.07 3.442c-.942 1.33-2.209 2.363-3.803 3.106-1.603.742-3.378 1.113-5.325 1.113zm-.715-19.234c-1.24 0-2.246.417-3.016 1.26-.77.841-1.268 2.046-1.485 3.603h8.693v-.498c-.027-1.394-.407-2.463-1.122-3.224-.716-.76-1.748-1.14-3.07-1.14zM123.581 38.74c-.29-.562-.498-1.26-.625-2.101-1.512 1.684-3.486 2.526-5.904 2.526-2.291 0-4.193-.66-5.696-1.992-1.503-1.331-2.264-2.997-2.264-5.017 0-2.481.924-4.383 2.762-5.714 1.839-1.331 4.501-2.001 7.969-2.01h2.88v-1.34c0-1.078-.281-1.947-.833-2.6-.553-.651-1.431-.977-2.626-.977-1.051 0-1.875.253-2.482.76-.597.507-.896 1.196-.896 2.074h-6.248c0-1.358.416-2.608 1.258-3.767.833-1.15 2.02-2.056 3.55-2.717 1.53-.652 3.242-.987 5.153-.987 2.888 0 5.17.725 6.864 2.174 1.693 1.448 2.544 3.486 2.544 6.112v10.142c.018 2.219.326 3.903.933 5.044v.371h-6.339v.019zm-5.171-4.347c.924 0 1.775-.208 2.554-.616.779-.407 1.358-.96 1.73-1.657V28.1h-2.337c-3.133 0-4.799 1.077-4.998 3.241l-.018.371c0 .78.271 1.422.824 1.93.552.506 1.295.75 2.245.75zM146.917 21.199a16.587 16.587 0 00-2.245-.172c-2.364 0-3.912.797-4.655 2.4V38.74h-6.248V15.33h5.904l.172 2.79c1.259-2.146 2.988-3.224 5.216-3.224.688 0 1.34.09 1.947.281l-.091 6.022zM155.683 15.331l.19 2.708c1.676-2.092 3.912-3.134 6.729-3.134 2.481 0 4.328.725 5.542 2.183 1.213 1.458 1.829 3.631 1.856 6.529V38.74h-6.248V23.77c0-1.321-.29-2.29-.87-2.888-.579-.598-1.539-.896-2.879-.896-1.757 0-3.079.751-3.958 2.245V38.74h-6.248V15.33h5.886z" fill="#203A59"/><path d="M44.866 27.118c-.866-1.674-2.814-2.268-4.354-1.326l-13.65 8.345-9.406-6.38V17.653l9.057-6.545 6.412 3.626-9.795 6.843c-1.489 1.036-1.919 3.184-.965 4.801.953 1.617 2.93 2.085 4.418 1.049l14.44-10.077c.96-.67 1.517-1.845 1.465-3.083-.052-1.238-.709-2.35-1.72-2.925L27.791 4a2.187 2.187 0 00-.174-.082 3.054 3.054 0 00-.651-.234c-.024-.006-.053-.006-.076-.012a2.838 2.838 0 00-.465-.05h-.157c-.169 0-.337.018-.506.05l-.076.019a3.304 3.304 0 00-.482.151c-.052.02-.099.045-.145.064-.175.082-.343.17-.5.29L5.957 17.63c-1.47 1.061-1.872 3.216-.895 4.814.616 1.005 1.633 1.554 2.668 1.554.61 0 1.22-.19 1.767-.58l1.582-1.144v7.417c0 1.2.57 2.312 1.505 2.95L25.1 41.131a2.982 2.982 0 003.262.076l15.3-9.357c1.524-.941 2.07-3.064 1.204-4.732z" fill="white"/><defs><linearGradient id="paint0_linear_2_51" x1="24.903" y1="46.183" x2="24.903" y2="-2.935" gradientUnits="userSpaceOnUse"><stop stop-color="#A734FF"/><stop offset="1" stop-color="#D092FF"/></linearGradient></defs></svg>