<svg width="170" height="47" viewBox="0 0 170 47" fill="none" xmlns="http://www.w3.org/2000/svg">
<path d="M42.5594 46.1833H7.2462C3.26079 46.1833 0 43.0201 0 39.1539V7.02943C0 3.16324 3.26079 0 7.2462 0H42.5594C46.5448 0 49.8056 3.16324 49.8056 7.02943V39.1539C49.8056 43.0201 46.5448 46.1833 42.5594 46.1833Z" fill="url(#paint0_linear_2_51)"/>
<path d="M68.9762 33.5327H82.7587V38.7487H62.4833V7.24438H68.9762V33.5327Z" fill="#203A59"/>
<path d="M96.8401 39.1744C93.4081 39.1744 90.6099 38.124 88.4547 36.014C86.2994 33.9041 85.2218 31.1059 85.2218 27.6014V26.9947C85.2218 24.6402 85.6746 22.5394 86.5802 20.692C87.4857 18.8356 88.7716 17.4139 90.4378 16.4087C92.1041 15.4036 94.0057 14.9055 96.1338 14.9055C99.3394 14.9055 101.857 15.9197 103.695 17.9301C105.533 19.9495 106.457 22.811 106.457 26.5147V29.0684H91.5607C91.7599 30.5988 92.3757 31.8213 93.3899 32.745C94.4042 33.6686 95.6901 34.1305 97.2476 34.1305C99.6564 34.1305 101.54 33.2611 102.898 31.5134L105.968 34.9545C105.026 36.2857 103.759 37.318 102.165 38.0606C100.562 38.8031 98.7871 39.1744 96.8401 39.1744ZM96.1247 19.9404C94.8841 19.9404 93.8789 20.357 93.1092 21.1991C92.3395 22.0413 91.8414 23.2457 91.6241 24.8032H100.317V24.3052C100.29 22.9106 99.9099 21.8421 99.1946 21.0814C98.4792 20.3207 97.4468 19.9404 96.1247 19.9404Z" fill="#203A59"/>
<path d="M123.581 38.7396C123.291 38.1781 123.083 37.4808 122.956 36.6387C121.444 38.323 119.47 39.1652 117.052 39.1652C114.761 39.1652 112.859 38.5041 111.356 37.173C109.853 35.8418 109.092 34.1756 109.092 32.1562C109.092 29.675 110.016 27.7733 111.854 26.4421C113.693 25.111 116.355 24.4408 119.823 24.4318H122.703V23.0916C122.703 22.014 122.422 21.1446 121.87 20.4926C121.317 19.8406 120.439 19.5146 119.244 19.5146C118.193 19.5146 117.369 19.7682 116.762 20.2753C116.165 20.7824 115.866 21.4706 115.866 22.349H109.618C109.618 20.9907 110.034 19.741 110.876 18.5819C111.709 17.4318 112.896 16.5263 114.426 15.8652C115.956 15.2132 117.668 14.8782 119.579 14.8782C122.467 14.8782 124.749 15.6026 126.443 17.0515C128.136 18.5004 128.987 20.5379 128.987 23.164V33.3062C129.005 35.5248 129.313 37.2092 129.92 38.3502V38.7215H123.581V38.7396ZM118.41 34.3929C119.334 34.3929 120.185 34.1846 120.964 33.7771C121.743 33.3696 122.322 32.8172 122.694 32.12V28.0993H120.357C117.224 28.0993 115.558 29.1769 115.359 31.3412L115.341 31.7125C115.341 32.4912 115.612 33.1342 116.165 33.6413C116.717 34.1484 117.46 34.3929 118.41 34.3929Z" fill="#203A59"/>
<path d="M146.917 21.1989C146.066 21.0812 145.315 21.0269 144.672 21.0269C142.308 21.0269 140.76 21.8237 140.017 23.4266V38.7395H133.769V15.3309H139.673L139.845 18.12C141.104 15.9739 142.833 14.8962 145.061 14.8962C145.749 14.8962 146.401 14.9868 147.008 15.177L146.917 21.1989Z" fill="#203A59"/>
<path d="M155.683 15.3311L155.873 18.0387C157.549 15.9469 159.785 14.9055 162.602 14.9055C165.083 14.9055 166.93 15.63 168.144 17.0879C169.357 18.5459 169.973 20.7192 170 23.617V38.7397H163.752V23.7709C163.752 22.4488 163.462 21.4799 162.882 20.8822C162.303 20.2845 161.343 19.9857 160.003 19.9857C158.246 19.9857 156.924 20.7373 156.045 22.2315V38.7397H149.797V15.3311H155.683Z" fill="#203A59"/>
<path d="M44.8659 27.1183C43.9997 25.4441 42.0522 24.8502 40.5117 25.7916L26.8618 34.1374L17.4558 27.7564V17.6542L26.513 11.1089L32.9252 14.7354L23.1296 21.5776C21.6414 22.6137 21.2112 24.7618 22.1646 26.3791C23.118 27.9965 25.0945 28.464 26.5828 27.4279L41.0232 17.351C41.9824 16.6813 42.5405 15.5062 42.4882 14.2679C42.4359 13.0296 41.779 11.9176 40.7674 11.3427L27.792 4.00138C27.7338 3.9698 27.6757 3.94452 27.6176 3.91925C27.5711 3.89398 27.5245 3.87503 27.478 3.85607C27.3094 3.78658 27.1409 3.7234 26.9665 3.68549C26.9432 3.67917 26.9141 3.67917 26.8909 3.67286C26.7397 3.64127 26.5828 3.62863 26.4258 3.62231C26.3735 3.62231 26.3212 3.62231 26.2689 3.62231C26.1003 3.62231 25.9317 3.64127 25.7631 3.67286C25.7398 3.67917 25.7108 3.68549 25.6875 3.69181C25.5247 3.72972 25.362 3.78026 25.205 3.84344C25.1527 3.86239 25.1062 3.88766 25.0597 3.90662C24.8853 3.98875 24.7167 4.0772 24.5597 4.19724L5.95687 17.6289C4.48608 18.6903 4.08496 20.8447 5.06161 22.4431C5.67783 23.4477 6.69517 23.9973 7.72995 23.9973C8.34036 23.9973 8.95076 23.8078 9.49722 23.4161L11.0785 22.2726V29.6897C11.0785 30.8901 11.6482 32.002 12.5841 32.6401L25.1004 41.1313C25.6178 41.4851 26.2049 41.6557 26.7921 41.6557C27.3327 41.6557 27.8733 41.504 28.3617 41.2071L43.6625 31.8504C45.1856 30.909 45.7321 28.7862 44.8659 27.1183Z" fill="white"/>
<defs>
<linearGradient id="paint0_linear_2_51" x1="24.9028" y1="46.1833" x2="24.9028" y2="-2.93538" gradientUnits="userSpaceOnUse">
<stop stop-color="#A734FF"/>
<stop offset="1" stop-color="#D092FF"/>
</linearGradient>
</defs>
</svg>
